<svg xmlns="http://www.w3.org/2000/svg" width="600" height="372" viewBox="0 0 158.75 98.425"><path fill="#80f41a" d="M0 98.424998V0h158.75v98.424998z"/><path fill="hsla(92, 91%, 59%, 1)" d="M-5.118115 49.212505c0-46.66426 37.828857-84.49312 84.49312-84.49312 46.664255 0 84.493115 37.82886 84.493115 84.49312 0 46.66425-37.82886 84.493115-84.493115 84.493115-46.664263 0-84.49312-37.828865-84.49312-84.493115z"/><path fill="#80f41a" d="M5.332926 49.212505c0-40.89231 33.149767-74.042081 74.042079-74.042081 40.892315 0 74.042085 33.149771 74.042085 74.042081 0 40.8923-33.14977 74.042075-74.042085 74.042075-40.892309 0-74.042076-33.149775-74.042076-74.042075z"/><path fill="hsla(92, 91%, 59%, 1)" d="M15.91627 49.212505c0-35.0473 28.411448-63.458748 63.458745-63.458748 35.047305 0 63.458745 28.411448 63.458745 63.458748 0 35.04729-28.41145 63.458745-63.458745 63.458745-35.047297 0-63.458745-28.411455-63.458745-63.458745z"/><path fill="#80f41a" d="M26.631895 49.212505c0-29.12922 23.613898-52.743121 52.74312-52.743121 29.129225 0 52.743125 23.613901 52.743125 52.743121 0 29.12922-23.6139 52.743125-52.743125 52.743125-29.129217 0-52.743115-23.613905-52.743115-52.743125z"/><path fill="hsla(92, 91%, 59%, 1)" d="M37.016785 49.212505c0-23.3938 18.964423-42.35822 42.35822-42.35822 23.393805 0 42.358235 18.96442 42.358235 42.35822 0 23.3938-18.96443 42.35822-42.358225 42.35822-23.393804 0-42.358224-18.96442-42.358224-42.35822z"/><path fill="#80f41a" d="M47.798556 49.212505c0-17.43919 14.137259-31.57645 31.576449-31.57645s31.576465 14.13726 31.576465 31.57645c0 17.43919-14.137265 31.57645-31.576455 31.57645-17.439195 0-31.576454-14.13726-31.576454-31.57645z"/><path fill="hsla(92, 91%, 59%, 1)" d="M58.183452 49.212505c0-11.70378 9.487783-21.19156 21.191553-21.19156 11.70378 0 21.191565 9.48778 21.191565 21.19156 0 11.70377-9.487785 21.19155-21.191555 21.19155-11.70378 0-21.191558-9.48778-21.191558-21.19155z"/><path fill="#80f41a" d="M68.810875 49.212505c0-5.83441 4.72972-10.56413 10.56412-10.56413 5.8344 0 10.56413 4.72972 10.56413 10.56413 0 5.8344-4.72973 10.56412-10.56413 10.56412-5.8344 0-10.56412-4.72972-10.56412-10.56412z"/><g transform="translate(61,30) scale(0.25) translate(-158.75,-98.425)"><g fill="#ffffff" stroke="#ffffff" stroke-width="12" stroke-miterlimit="10"><path d="M339.68374,206.04129c-1.5656,12.26236 -7.3076,23.86645 -17.21712,34.82118c-8.08595,8.60634 -20.08589,16.82127 -35.99093,24.6448c-27.13108,13.30313 -51.51346,20.21932 -73.15605,20.73526c-4.17196,0.26686 -11.15043,0.5871 -20.93096,0.9785c-9.78053,0.3914 -14.93099,0.5871 -15.45582,0.5871h-22.2964c-3.91399,0.78724 -7.3076,0.20015 -10.17193,-1.76129c-2.86878,-1.95255 -4.55891,-4.75461 -5.08819,-8.41064c3.65602,-7.04519 10.8213,-10.04294 21.51806,-8.99773c16.68784,1.56559 26.21485,1.95254 28.5588,1.17419c0,-5.73311 -0.26242,-13.4321 -0.7828,-23.0792c-1.04077,-13.30313 -1.69903,-21.38463 -1.95255,-24.25785c-1.30763,-21.90945 -3.52259,-61.15611 -6.64934,-117.75776c-0.26686,-3.91399 -0.91623,-6.77832 -1.957,-8.61078c-1.30763,-0.7828 -3.00221,-0.7828 -5.08819,0c-2.60636,0.7828 -5.73755,1.17419 -9.38468,1.17419c-5.74201,0 -11.02589,-1.03632 -15.84277,-3.12674c-4.82578,-2.08598 -7.23643,-4.95031 -7.23643,-8.61078c0,-1.30318 0.39139,-2.73534 1.17419,-4.30539c2.87322,-6.25794 8.99329,-9.38469 18.38687,-9.38469c2.08598,0 5.86653,0.26242 11.34612,0.7828c4.43437,0.52483 7.69011,0.64936 9.78053,0.39139c2.08598,-0.25797 12.12893,0.3914 30.11995,1.95255c13.82351,1.30763 25.16963,2.87322 34.03838,4.69679c32.59732,7.3076 59.7195,28.30083 81.37544,62.98858c3.64713,6.00442 7.55668,15.51808 11.73753,28.55879c2.3395,7.56556 2.7309,19.16522 1.1653,34.81674zM310.73355,222.47116c5.21272,-8.60634 7.82798,-17.99547 7.82798,-28.16739c0,-24.51137 -13.43655,-48.90265 -40.29632-73.15605c-3.39361,-3.13119 -10.83019,-7.82798 -22.30086,-14.08592c-15.39355,-8.07706 -32.99761,-12.51587 -52.81664,-13.29868c2.60636,59.99081 5.08819,104.32566 7.43214,133.01344c1.04077,9.38913 2.60636,23.34607 4.69679,41.86192c13.56109,0.7828 28.95464,-2.28168 46.16731,-9.19344c17.21267,-6.90731 31.81452,-16.10073 43.81891,-27.58029c0.24907,-0.25797 2.08154,-3.38916 5.47069,-9.39358z"/></g></g></svg>